HIERARCHY
ROOT Hips
{
	OFFSET 0.000000 0.000000 0.000000
	CHANNELS 6 Xposition Yposition Zposition Zrotation Yrotation Xrotation 
	JOINT LeftUpLeg_virtual
	{
		OFFSET 0.000000 0.000000 0.000000
		CHANNELS 3 Zrotation Yrotation Xrotation
		JOINT LeftUpLeg
		{
			OFFSET 8.479694 -4.795517 -0.379053
			CHANNELS 3 Zrotation Yrotation Xrotation
			JOINT LeftLeg
			{
				OFFSET 0.485052 -32.551468 0.112863
				CHANNELS 3 Zrotation Yrotation Xrotation
				JOINT LeftFoot
				{
					OFFSET 0.438033 -32.635670 -3.012641
					CHANNELS 3 Zrotation Yrotation Xrotation
					JOINT LeftToeBase
					{
						OFFSET 0.970169 -13.225353 11.864223
						CHANNELS 3 Zrotation Yrotation Xrotation
						End Site
						{
							OFFSET 0.000000 0.000000 0.000000
						}
					}
				}
			}
		}
	}
	JOINT RightUpLeg_virtual
	{
		OFFSET 0.000000 0.000000 0.000000
		CHANNELS 3 Zrotation Yrotation Xrotation
		JOINT RightUpLeg
		{
			OFFSET -8.479694 -4.795517 -0.379053
			CHANNELS 3 Zrotation Yrotation Xrotation
			JOINT RightLeg
			{
				OFFSET -0.484100 -32.551483 0.112903
				CHANNELS 3 Zrotation Yrotation Xrotation
				JOINT RightFoot
				{
					OFFSET -0.438985 -32.635651 -3.012681
					CHANNELS 3 Zrotation Yrotation Xrotation
					JOINT RightToeBase
					{
						OFFSET -0.970169 -13.225354 11.864223
						CHANNELS 3 Zrotation Yrotation Xrotation
						End Site
						{
							OFFSET 0.000000 0.000000 0.000000
						}
					}
				}
			}
		}
	}
	JOINT Spine_virtual
	{
		OFFSET 0.000000 0.000000 0.000000
		CHANNELS 3 Zrotation Yrotation Xrotation
		JOINT Spine
		{
			OFFSET 0.000000 7.722015 1.166203
			CHANNELS 3 Zrotation Yrotation Xrotation
			JOINT Spine1
			{
				OFFSET 0.000000 12.024086 0.248766
				CHANNELS 3 Zrotation Yrotation Xrotation
				JOINT Spine2
				{
					OFFSET -0.000000 11.503036 -0.491240
					CHANNELS 3 Zrotation Yrotation Xrotation
					JOINT Neck_virtual
					{
						OFFSET 0.000000 0.000000 0.000000
						CHANNELS 3 Zrotation Yrotation Xrotation
						JOINT Neck
						{
							OFFSET 0.000000 18.430687 -3.123054
							CHANNELS 3 Zrotation Yrotation Xrotation
							JOINT Head
							{
								OFFSET -0.000000 9.051071 1.034021
								CHANNELS 3 Zrotation Yrotation Xrotation
								End Site
								{
									OFFSET 0.000000 0.000000 0.000000
								}
							}
						}
					}
					JOINT LeftShoulder_virtual
					{
						OFFSET 0.000000 0.000000 0.000000
						CHANNELS 3 Zrotation Yrotation Xrotation
						JOINT LeftShoulder
						{
							OFFSET 6.197824 13.665230 -4.064723
							CHANNELS 3 Zrotation Yrotation Xrotation
							JOINT LeftArm
							{
								OFFSET 7.778132 -0.187073 -1.709282
								CHANNELS 3 Zrotation Yrotation Xrotation
								JOINT LeftForeArm
								{
									OFFSET 21.954697 0.000000 -2.041093
									CHANNELS 3 Zrotation Yrotation Xrotation
									JOINT LeftHand
									{
										OFFSET 22.992908 0.000000 -0.870901
										CHANNELS 3 Zrotation Yrotation Xrotation
										End Site
										{
											OFFSET 0.000000 0.000000 0.000000
										}
									}
								}
							}
						}
					}
					JOINT RightShoulder_virtual
					{
						OFFSET 0.000000 0.000000 0.000000
						CHANNELS 3 Zrotation Yrotation Xrotation
						JOINT RightShoulder
						{
							OFFSET -6.197824 13.665230 -4.064723
							CHANNELS 3 Zrotation Yrotation Xrotation
							JOINT RightArm
							{
								OFFSET -7.778132 -0.187073 -1.709282
								CHANNELS 3 Zrotation Yrotation Xrotation
								JOINT RightForeArm
								{
									OFFSET -21.954697 0.000000 -2.041093
									CHANNELS 3 Zrotation Yrotation Xrotation
									JOINT RightHand
									{
										OFFSET -22.992908 0.000000 -0.870901
										CHANNELS 3 Zrotation Yrotation Xrotation
										End Site
										{
											OFFSET 0.000000 0.000000 0.000000
										}
									}
								}
							}
						}
					}
				}
			}
		}
	}
}
MOTION
Frames: 13
Frame Time: 0.033333
9.319219 82.353386 -11.468006 179.594756 -34.713607 -179.647704 -1.741228 -6.197200 12.008955 13.506902 -9.155817 -31.729797 2.522968 -1.068773 31.193061 -13.159696 -9.306045 -2.249619 0.000000 0.000000 0.000000 1.608345 -6.295532 10.524476 2.888133 4.575209 -26.756518 -0.615380 1.799344 28.719173 5.277570 3.228685 -8.396336 0.000000 0.000000 0.000000 4.666301 -2.339994 -5.748603 -0.913675 3.223280 0.222558 0.557306 -0.816074 8.017463 0.051574 0.288367 0.042739 0.063076 0.155521 8.803987 7.817654 -2.265947 -7.733340 0.000000 0.000000 0.000000 1.418543 1.077695 6.291783 -6.106616 -5.322722 -0.084847 -57.096673 4.922743 7.027366 1.380637 -37.318682 8.215206 0.000000 0.000000 0.000000 -2.599651 2.617721 5.917051 22.391395 -1.576126 0.882858 24.476009 25.114122 0.272497 -6.425405 60.106573 -10.109951 0.000000 0.000000 0.000000 
9.498848 82.365669 -10.827816 179.720637 -34.917286 -179.875778 -1.607727 -6.272432 11.872755 13.462054 -8.705520 -31.840467 2.126206 -0.973310 30.799239 -13.554097 -9.151330 -1.578471 0.000000 0.000000 0.000000 1.768262 -5.820777 10.482181 2.622230 4.557478 -26.979959 -0.659431 1.878792 28.559049 5.049444 3.193276 -8.055985 0.000000 0.000000 0.000000 4.958922 -2.070758 -5.436942 -0.601157 3.393902 0.522768 0.620662 -0.693115 8.139657 0.049832 0.342584 0.035803 0.173512 0.243131 8.882634 8.440685 -2.360746 -7.647426 0.000000 0.000000 0.000000 1.484725 1.101064 6.358102 -5.976483 -5.973112 -0.135801 -57.333236 4.969613 6.408929 1.554707 -36.439957 8.317256 0.000000 0.000000 0.000000 -2.544740 2.710570 5.827528 20.604236 -2.424689 0.249843 18.390542 27.891822 -7.708786 -5.506872 57.155583 -9.426223 0.000000 0.000000 0.000000 
9.654187 82.386177 -10.144845 179.804839 -36.043987 -179.774431 -1.567159 -6.364398 11.719500 13.419826 -8.476724 -32.693240 2.006041 -1.153872 30.721129 -14.001367 -9.026932 -0.757776 0.000000 0.000000 0.000000 1.852488 -5.768912 10.408635 2.395998 4.253133 -27.339835 -0.656029 1.673108 28.024644 4.690448 2.924199 -7.899596 0.000000 0.000000 0.000000 5.207982 -2.048393 -5.267927 -0.308465 3.325310 0.615344 0.726857 -0.825500 8.214702 0.044543 0.249808 0.028700 0.294496 0.238061 9.103817 9.027048 -2.372931 -7.386391 0.000000 0.000000 0.000000 1.572639 1.006070 6.486376 -5.838588 -6.556767 -0.204572 -57.738287 5.222305 5.661625 1.548977 -36.101470 8.448667 0.000000 0.000000 0.000000 -2.472067 2.590550 5.900477 18.788457 -3.591906 -0.501109 13.029074 30.416834 -14.473075 -4.903882 56.786657 -9.113058 0.000000 0.000000 0.000000 
9.770968 82.422752 -9.471768 179.846585 -36.149043 -179.659411 -1.634578 -5.899968 11.485300 13.360110 -7.926371 -33.256075 1.741069 -1.131299 30.576974 -14.271818 -8.851602 0.002229 0.000000 0.000000 0.000000 1.922816 -5.157449 10.280335 2.047218 4.422727 -27.653643 -0.677992 1.681880 27.676780 4.531364 2.745024 -7.568597 0.000000 0.000000 0.000000 5.370259 -1.648883 -5.026617 -0.075917 3.189834 0.705546 0.898532 -0.681062 8.313832 0.037090 0.347943 0.078109 0.509197 0.192230 9.355092 9.583322 -2.555520 -7.026716 0.000000 0.000000 0.000000 1.745262 1.009079 6.651702 -5.732023 -7.040455 -0.283361 -58.280877 5.604140 4.831824 1.592746 -36.119065 8.352175 0.000000 0.000000 0.000000 -2.344551 2.601665 5.873211 17.179982 -4.904604 -1.067435 8.786641 32.348090 -19.778399 -4.813244 59.722129 -9.400121 0.000000 0.000000 0.000000 
9.836412 82.469749 -8.880476 179.861420 -35.909549 -179.693753 -1.865133 -4.947630 11.323955 13.317995 -7.454167 -33.680578 1.501345 -1.196268 30.466841 -14.449275 -8.743925 0.797005 0.000000 0.000000 0.000000 1.955626 -4.542409 10.274658 1.773380 4.575562 -27.860181 -0.669726 1.835692 27.435304 4.526080 2.588798 -7.177316 0.000000 0.000000 0.000000 5.455016 -1.028948 -4.639035 0.067705 3.118842 0.803374 1.106206 -0.541171 8.496242 -0.000520 0.351356 -0.023246 0.815017 0.311220 9.679263 10.160367 -2.619277 -6.671685 0.000000 0.000000 0.000000 1.982324 1.020348 6.928051 -5.734652 -7.368470 -0.369479 -58.918851 6.022955 4.128582 1.478580 -36.448963 8.343461 0.000000 0.000000 0.000000 -2.146776 2.588580 5.913969 15.763960 -6.357479 -1.615565 5.961962 34.065398 -23.696508 -5.293192 65.598359 -10.345262 0.000000 0.000000 0.000000 
9.832919 82.519897 -8.415618 -179.968764 -36.572057 -179.867855 -3.041180 -4.975999 11.271228 14.670048 -6.813010 -34.070917 0.894827 -1.172917 30.644340 -14.466850 -8.696124 1.300317 0.000000 0.000000 0.000000 1.979966 -4.453037 10.349465 1.678882 4.370128 -27.996747 -0.639906 1.723709 27.139164 4.481861 2.251050 -6.936703 0.000000 0.000000 0.000000 5.517145 -1.189282 -4.341044 0.139866 2.851823 0.823076 1.365019 -0.705242 8.660145 0.025704 0.273443 0.011420 0.993518 0.234869 9.829892 10.533957 -2.560487 -6.236790 0.000000 0.000000 0.000000 2.178082 1.104622 6.838882 -5.816138 -7.371582 -0.425508 -59.569939 6.503129 3.625513 1.459147 -36.972070 8.188291 0.000000 0.000000 0.000000 -1.949517 2.667036 5.998956 14.549124 -7.680963 -2.047103 4.641537 35.744371 -26.018976 -7.189240 73.298079 -12.854217 0.000000 0.000000 0.000000 
9.767771 82.558128 -8.072654 179.984637 -36.956870 -179.920010 -2.233749 -3.746743 10.813196 12.262952 -5.683234 -34.359929 1.947625 -1.168690 31.436096 -13.919429 -8.283553 1.982192 0.000000 0.000000 0.000000 1.894402 -4.211471 10.357173 1.539320 4.253443 -28.102441 -0.635362 1.832128 27.086497 4.636781 2.001573 -6.745190 0.000000 0.000000 0.000000 5.415323 -1.019549 -4.159811 -0.004392 2.715025 0.729746 1.563831 -0.710827 8.758076 0.024878 0.202915 -0.016264 1.286212 0.165458 10.119286 10.781161 -2.588553 -5.824471 0.000000 0.000000 0.000000 2.445917 1.034893 7.069360 -5.876562 -7.492975 -0.501916 -60.074697 6.734404 3.588918 1.404879 -37.505197 7.996736 0.000000 0.000000 0.000000 -1.715766 2.639675 5.985228 13.646827 -8.997417 -2.357990 5.136912 36.437823 -26.329537 -13.661938 81.509230 -20.008436 0.000000 0.000000 0.000000 
9.624240 82.583298 -7.836764 179.945705 -37.631463 179.950281 -2.067396 -3.203661 10.661032 10.730882 -4.022854 -34.370123 2.956197 -0.966491 32.559693 -12.869501 -7.733396 1.852666 0.000000 0.000000 0.000000 1.779578 -4.315488 10.426150 1.453572 3.911392 -28.129321 -0.637673 1.859857 27.167952 4.840501 1.716469 -6.696919 0.000000 0.000000 0.000000 5.267212 -1.134926 -4.073357 -0.244224 2.458020 0.589426 1.740113 -0.769378 8.739363 0.034298 0.140804 0.012606 1.471202 0.292423 10.209603 10.993770 -2.543661 -5.537673 0.000000 0.000000 0.000000 2.614136 1.066593 7.122564 -5.887302 -7.452974 -0.645242 -60.283072 6.617309 3.786598 1.281156 -38.084862 7.900909 0.000000 0.000000 0.000000 -1.551549 2.695475 5.967577 13.012333 -10.009616 -2.335005 6.874936 36.475396 -24.678814 -67.322210 87.854517 -74.380214 0.000000 0.000000 0.000000 
9.387644 82.604370 -7.690660 179.920843 -37.962260 179.917196 -2.069205 -2.823976 10.701059 9.795275 -2.276791 -34.171447 4.616685 0.587157 34.303269 -10.086955 -5.644633 1.941662 0.000000 0.000000 0.000000 1.688086 -4.429392 10.462704 1.367636 3.681539 -28.220827 -0.583159 1.977379 27.378750 5.186746 1.519236 -6.646621 0.000000 0.000000 0.000000 5.097097 -1.048787 -4.149392 -0.560830 2.553194 0.348492 1.844149 -0.781708 8.797694 0.032094 0.045603 -0.029961 1.564814 0.119176 10.159257 10.988711 -2.461270 -5.289572 0.000000 0.000000 0.000000 2.679210 1.040172 7.126519 -5.792858 -7.427555 -0.755908 -60.174807 6.299037 4.217415 1.280867 -38.524360 7.610841 0.000000 0.000000 0.000000 -1.427101 2.675316 5.840864 12.422191 -10.858443 -2.118136 9.809711 35.200555 -20.570564 -156.746954 84.659580 -164.460191 0.000000 0.000000 0.000000 
9.052339 82.586418 -7.610573 179.798596 -38.574115 179.947576 -1.926917 -3.071623 10.869852 9.259330 -1.285382 -33.822458 5.655023 1.647768 35.880589 -8.501599 -4.685651 1.087788 0.000000 0.000000 0.000000 1.478870 -4.859532 10.547092 1.246142 3.269561 -28.346062 -0.481916 2.083979 27.700496 5.562718 1.325195 -6.763988 0.000000 0.000000 0.000000 4.880077 -1.435362 -4.262174 -0.958406 2.508195 0.099234 1.896381 -0.588295 8.719134 0.017347 -0.015629 -0.070787 1.598628 0.409704 10.063912 10.993300 -2.318636 -5.228209 0.000000 0.000000 0.000000 2.734564 1.055017 7.009507 -5.715723 -7.213227 -0.872008 -59.855489 5.911528 4.669233 1.311382 -39.051105 7.375287 0.000000 0.000000 0.000000 -1.323893 2.782873 5.717985 11.779477 -11.335531 -1.838691 12.939062 32.597788 -15.067037 -166.930793 81.389197 -175.179599 0.000000 0.000000 0.000000 
8.563684 82.532234 -7.548877 179.877157 -39.010209 179.932400 -1.979703 -3.240417 11.058052 9.148830 -0.292215 -33.278850 6.198993 1.876560 36.195771 -7.793018 -4.499869 0.413651 0.000000 0.000000 0.000000 1.346089 -5.140969 10.626139 1.136942 2.918578 -28.520257 -0.405271 2.279144 28.170806 6.028211 1.218281 -6.915160 0.000000 0.000000 0.000000 4.713262 -1.630454 -4.438032 -1.232119 2.408135 -0.217839 1.841167 -0.646692 8.578360 -0.003380 0.104679 -0.014635 1.544187 0.689607 9.831161 10.825353 -2.222038 -5.177139 0.000000 0.000000 0.000000 2.730860 1.174715 6.797416 -5.597492 -6.817475 -0.934885 -59.519293 5.519860 5.085589 1.356396 -39.622440 7.047758 0.000000 0.000000 0.000000 -1.300237 2.837983 5.635667 11.050189 -11.486683 -1.280777 15.193452 28.959763 -9.294220 -169.465094 80.108106 -178.019141 0.000000 0.000000 0.000000 
7.915547 82.457413 -7.460179 179.928411 -39.207297 179.972561 -2.234099 -3.334497 11.245316 8.867967 1.098892 -32.561626 6.309640 1.741372 35.154929 -7.738784 -4.907852 0.093912 0.000000 0.000000 0.000000 1.180111 -5.201913 10.698585 0.954358 2.729714 -28.701804 -0.343442 2.555227 28.841464 6.602576 1.232700 -7.159815 0.000000 0.000000 0.000000 4.460049 -1.609810 -4.585088 -1.437962 2.542222 -0.538020 1.786844 -0.527990 8.402891 0.064788 0.039915 -0.097696 1.322041 0.514424 9.668374 10.487406 -2.022496 -5.183697 0.000000 0.000000 0.000000 2.576984 1.165135 6.694961 -5.566023 -6.494707 -1.010198 -59.233163 5.140291 5.470265 1.389806 -40.500266 6.781922 0.000000 0.000000 0.000000 -1.428796 2.866096 5.572789 10.160621 -11.431993 -0.669017 16.492726 24.856966 -3.721510 -169.606711 80.735158 -178.178598 0.000000 0.000000 0.000000 
7.099712 82.389679 -7.276356 179.914751 -39.597769 179.980676 -2.782711 -3.474845 11.404398 8.690933 2.374180 -31.763955 6.170454 1.464899 33.774930 -8.057897 -5.671928 -0.606870 0.000000 0.000000 0.000000 0.911111 -5.263517 10.786301 0.675831 2.514760 -28.853772 -0.320549 2.900866 29.494751 7.138603 1.236632 -7.623946 0.000000 0.000000 0.000000 4.071105 -1.693566 -4.683455 -1.625950 2.495204 -0.835165 1.723145 -0.637543 8.241363 0.014719 0.124934 -0.018859 1.290449 0.525832 9.331658 10.251760 -1.790437 -5.189566 0.000000 0.000000 0.000000 2.563444 1.120262 6.461668 -5.617330 -6.150121 -1.061973 -59.040183 4.886294 5.816865 1.529002 -41.618798 6.461518 0.000000 0.000000 0.000000 -1.486371 2.792615 5.431025 9.287916 -11.179612 -0.019269 16.433681 21.053196 0.991686 -169.065214 82.831330 -177.329961 0.000000 0.000000 0.000000 
